<?xml version="1.0" encoding="utf-8"?>
<!-- Generator: Adobe Illustrator 21.0.0, SVG Export Plug-In . SVG Version: 6.00 Build 0)  -->
<svg version="1.1" id="Ebene_1" xmlns="http://www.w3.org/2000/svg" xmlns:xlink="http://www.w3.org/1999/xlink" x="0px" y="0px"
	 viewBox="0 0 130.5 122" style="enable-background:new 0 0 130.5 122;" xml:space="preserve">
<style type="text/css">
	.st0{fill:#0C3984;}
</style>
<g>
	<g>
		<path class="st0" d="M107.7,88.7c-5.3-4.5-13.1-11.1-14.2-12.4c0-0.2-0.1-0.5-0.1-0.8c2.7,1.8,5.2,2.3,7.4,1.3
			c4.9-2.4,5.2-12.4,0.6-21.8c-1.4-2.9-3.2-5.6-5-7.8c0,0,0,0,0,0c-0.1-0.1-0.1-0.1-0.2-0.2c-1.3-1.1-2.8-2.2-3.9-3.1l0.4-0.1
			c2.4-0.8,5.2-1.8,5.8-3.8c0.2-0.6,0.3-1.5-0.5-2.6c-0.1-0.1-0.1-0.2-0.2-0.2c-3.4-3-11.4-8.1-12.8-9c-2.1-3.1-5.2-6.5-9.4-8.8
			c-5.9-3.1-12.9-3.4-20.8-0.7c-11.9,4-18.3,11.6-21.7,18.8c-1.8,0.8-5.3,2.5-6.1,3.2c-1.2,1-1.1,2.3-1.1,3.6c0,0.1,0,0.3,0,0.4
			c-0.5,0.3-1.5,0.7-2.3,0.9c-2.6,1-5.5,2-5.6,4.6c-0.1,2.4,2,3.6,3.4,4.5c0.4,0.2,1.1,0.6,1.3,0.8c0.2,0.9,0.3,1.6,0.5,2.5
			c0.1,0.7,0.3,1.4,0.5,2.4c0.6,3.3,6.3,5.5,8.8,6.3c0.4,0.7,0.6,1.5,0.7,1.8c-1,1.6-5.3,5.3-8.2,7.5c-0.1,0.1-0.2,0.2-0.3,0.3
			c-1.2-1.3-2.3-2.4-3.6-3.5c-4.6-3.9-9.1-5.3-12.7-4.1c-2.1,0.7-3.7,2.3-4.6,4.6c-2,5.1-0.8,13.3,3.4,21.4
			c6.1,12,16.1,19.6,22.8,17.2c2.1-0.7,3.7-2.3,4.6-4.6c0.8-1.9,1.1-4.3,0.9-7c0.4,0,0.9,0.1,1.3,0.1L56,112.9
			c0.2,0.2,0.5,0.2,0.8,0.2c0.2,0,0.4,0,0.6-0.1l7.5-3.3c0.7-0.3,1-1,0.9-1.7l-0.4-2.2l0.7-3.7c0-0.2,0-0.4,0-0.7l-3.2-12.3
			c1.2-1.1,2.4-2.4,3.6-3.7c2.3-2.5,4.2-5,5.8-7.4c0.3-0.1,0.7-0.2,1.2-0.3l24.8,16.5c0.4,0.3,1,0.3,1.4,0.1l7.7-3.3
			c0.5-0.2,0.8-0.7,0.9-1.2C108.3,89.5,108.1,89,107.7,88.7z M98.6,56.3c4,8.1,3.6,16.3,0.7,17.8c-2.5,1.2-7.7-2.5-11.8-9.9
			c1.6-2.2,2.6-4.9,2.6-7.8c0-1.5-0.2-2.9-0.7-4.2l5.3-2.3C96.2,51.8,97.5,54,98.6,56.3z M95.4,39c-0.6,0.6-2.9,1.4-3.9,1.8
			l-0.5,0.2c-1.6,0.6-3.1,1.1-3,2.5c0,0.4,0.1,0.7,0.4,1c0.5,0.5,2.3,2,3.8,3.3l-3.8,1.6c-0.8-2.1-2.6-5.7-6.2-8.1l5.8-3.3
			c0.6-0.3,0.9-1.1,0.7-1.7c0-0.1-0.3-1.2-1-2.7C90.5,35.3,93.6,37.4,95.4,39z M87.1,56.4c0,5.6-4.5,10.1-10.1,10.1
			S66.9,62,66.9,56.4c0-5.6,4.5-10.1,10.1-10.1S87.1,50.8,87.1,56.4z M35.2,39.3c0.1-0.1,0.1-0.2,0.2-0.4c3.1-6.6,9-13.8,20.2-17.6
			c7-2.3,13.2-2.2,18.4,0.5c7.1,3.7,10.5,11.2,11.5,14L80,39.1c-2-2.9-7.8-9.2-18.1-7.5c-11.5,1.9-15,15-15.7,18.6l-11.7,3.8
			L32,52.5C32.1,50.5,32.6,45.2,35.2,39.3z M75.9,38.8c-1.5-0.2-3.2-0.2-5,0c-10.3,1.3-14.1,11.7-15.2,15.4C54.1,54,51,53.4,49.1,51
			c0.6-2.8,3.6-14.8,13.3-16.5C69.2,33.4,73.5,36.3,75.9,38.8z M26.5,59.7c-0.2-1-0.4-1.7-0.5-2.4c-0.2-0.9-0.3-1.7-0.5-2.6
			c-0.3-1.3-1.5-2-2.6-2.7c-1.1-0.7-1.9-1.2-1.9-1.8c0.2-0.6,2.7-1.5,3.7-1.9c2.3-0.8,4.3-1.6,4.2-3.4c0-0.3,0-0.6,0-0.9
			c0-0.5,0-1.1,0.1-1.2c0.2-0.2,1.2-0.7,2.4-1.3C29,48,29,53.2,29,53.4c0,0.5,0.3,1,0.7,1.2l3.8,2.4c0.4,0.2,0.8,0.3,1.3,0.2l12.2-4
			c3.3,3.9,8.6,4.1,9.8,4.1h0.2c0.7,0,1.3-0.5,1.4-1.2c0-0.1,2.8-13,12.9-14.3c4.3-0.6,7.4,0.5,9.6,2.2c-1.2-0.4-2.5-0.6-3.9-0.6
			c-7.2,0-13.1,5.9-13.1,13.1c0,2,0.5,4,1.3,5.7l-7.9,3.6c-4.1-0.7-15.1-2.5-16.7-2.5c0,0,0,0-0.1,0c-0.5,0-1.3,0.1-2.3,0.3
			c-1.3,0.2-3.9,0.6-4.6,0.5C30.5,62.9,26.8,60.9,26.5,59.7z M31.8,106.2c-0.6,1.5-1.5,2.5-2.8,2.9c-4.6,1.6-13.4-4.4-19.2-15.8
			c-3.7-7.2-5-14.7-3.3-18.9c0.6-1.5,1.5-2.5,2.8-2.9c0.5-0.2,1-0.3,1.6-0.3c1.1,0,2.4,0.3,3.8,1c1.4,0.7,2.8,1.6,4.3,2.9
			c3.6,3,6.9,7.3,9.4,12.2C32.2,94.5,33.5,101.9,31.8,106.2z M63,102l-0.7,3.7c0,0.2,0,0.4,0,0.6l0.2,1.3l-5.7,2.5l-15-9.8
			c6.3-0.9,12.5-3.8,18.4-8.7L63,102z M60.3,87.5c-0.1,0.1-0.2,0.2-0.3,0.2c-6.5,5.9-15,10.6-24.9,9.5c-0.6-3.6-2-7.5-3.9-11.4
			c-1.4-2.7-3-5.2-4.7-7.5c0.1,0,0.2-0.1,0.3-0.2c1.3-1,7.8-6.2,9.1-8.8c0,0,0-0.1,0.1-0.2c0.3-0.8,0.1-1.7-0.2-2.6
			c0.9-0.1,1.9-0.2,3-0.4c0.8-0.1,1.6-0.2,2-0.3c1,0,9.2,1.3,16.6,2.5c0.3,0,0.6,0,0.9-0.1l8.7-3.9c1.8,2.2,4.4,3.9,7.4,4.5
			C72.3,72.7,67.5,80.9,60.3,87.5z M77.5,69.5c0.2,0,0.3,0,0.5,0c0.9,1.3,1.7,2.6,2.1,3.5c-1.3,0.4-3.5,1-5.4,1.5
			C76.1,72.2,77,70.4,77.5,69.5z M99.2,91.4l-22-14.6c2.2-0.6,4.3-1.2,4.9-1.4c0.5-0.2,1-0.6,1.2-1.1c0.2-0.5,0.5-1.5-2.1-5.5
			c1.5-0.5,3-1.3,4.2-2.3c1.4,2.5,3,4.6,4.7,6.3c0.1,1.4,0.3,3.9,0.6,4.8c0.2,0.4,0.5,1.2,13.2,11.9L99.2,91.4z"/>
		<path class="st0" d="M25.6,86.5C21.2,78.4,15,73.9,11.2,76c-3.8,2.1-3.4,9.8,1,17.8c3.7,6.7,8.6,10.9,12.4,10.9
			c0.8,0,1.5-0.2,2.1-0.5c1.8-1,2.6-3.1,2.6-5.9C29.2,95.1,28,90.8,25.6,86.5z M25.1,101.6c-1.7,0.9-6.6-2.2-10.4-9.2
			c-3.8-7-3.8-12.8-2.2-13.7c0.2-0.1,0.4-0.1,0.7-0.1c2.1,0,6.3,3.2,9.7,9.4C26.8,94.9,26.8,100.7,25.1,101.6z"/>
	</g>
</g>
<path class="st0" d="M100.1,23.1c-0.8-0.2-1.6,0.3-1.8,1.1c-0.2,0.8,0.3,1.6,1.1,1.8c7.2,1.6,8.5,8.6,8.6,8.9
	c0.1,0.7,0.8,1.2,1.5,1.2c0.1,0,0.2,0,0.3,0c0.8-0.1,1.4-0.9,1.2-1.7C111,34.1,109.3,25.2,100.1,23.1z"/>
<path class="st0" d="M104,15.6c-0.8-0.2-1.6,0.4-1.8,1.2c-0.2,0.8,0.4,1.6,1.2,1.8c11.3,2.2,12.4,13,12.4,13.4
	c0.1,0.8,0.7,1.4,1.5,1.4c0,0,0.1,0,0.1,0c0.8-0.1,1.4-0.8,1.4-1.6C118.8,31.5,117.5,18.2,104,15.6z"/>
<path class="st0" d="M108.4,6.9c-0.8-0.2-1.6,0.3-1.8,1.2c-0.2,0.8,0.3,1.6,1.2,1.8c16.1,3.5,16.4,18.7,16.4,19.3
	c0,0.8,0.7,1.5,1.5,1.5c0.8,0,1.5-0.7,1.5-1.5C127.2,28.9,127,10.8,108.4,6.9z"/>
</svg>
